<svg id="Capa_1" enable-background="new 0 0 512 512" height="512" viewBox="0 0 512 512" width="512" xmlns="http://www.w3.org/2000/svg"><g><g><path d="m504.5 240.017v168.06c0 27.97-22.68 50.65-50.65 50.65h-296.86c-27.97 0-50.65-22.68-50.65-50.65v-168.06c0-27.97 22.68-50.65 50.65-50.65h296.86c27.97 0 50.65 22.68 50.65 50.65z" fill="#e28086"/><path d="m425.62 189.367v105.94c0 27.97-22.68 50.65-50.66 50.65h-268.62v-105.94c0-27.97 22.68-50.65 50.65-50.65z" fill="#dd636e"/><path d="m180.927 458.732h-23.94c-27.97 0-50.65-22.68-50.65-50.65v-168.06c0-27.97 22.68-50.65 50.65-50.65h23.94c-27.97 0-50.65 22.68-50.65 50.65v168.06c0 27.97 22.68 50.65 50.65 50.65z" fill="#dd636e"/><path d="m355.01 322.626h-296.857c-27.975 0-50.653-22.678-50.653-50.653v-168.052c0-27.975 22.678-50.653 50.653-50.653h296.857c27.975 0 50.653 22.678 50.653 50.653v168.053c0 27.974-22.678 50.652-50.653 50.652z" fill="#f6f9f9"/><path d="m82.09 322.631h-23.94c-27.97 0-50.65-22.68-50.65-50.65v-168.06c0-27.97 22.68-50.65 50.65-50.65h23.94c-27.97 0-50.65 22.68-50.65 50.65v168.06c0 27.97 22.68 50.65 50.65 50.65z" fill="#dae7ef"/><circle cx="89.749" cy="139.498" fill="#e28086" r="48.932"/></g><g><path d="m453.85 181.87h-40.69v-77.95c0-32.064-26.086-58.15-58.15-58.15h-235.63c-4.142 0-7.5 3.358-7.5 7.5s3.358 7.5 7.5 7.5h235.63c23.793 0 43.15 19.357 43.15 43.15v168.05c0 23.798-19.357 43.16-43.15 43.16h-296.86c-23.793 0-43.15-19.361-43.15-43.16v-168.05c0-23.793 19.357-43.15 43.15-43.15h31.23c4.142 0 7.5-3.358 7.5-7.5s-3.358-7.5-7.5-7.5h-31.23c-32.064 0-58.15 26.086-58.15 58.15v168.05c0 32.069 26.086 58.16 58.15 58.16h40.69v77.94c0 32.07 26.086 58.16 58.15 58.16h137.91c4.142 0 7.5-3.358 7.5-7.5s-3.358-7.5-7.5-7.5h-137.91c-23.793 0-43.15-19.362-43.15-43.16v-77.94h241.17c32.064 0 58.15-26.09 58.15-58.16v-75.1h40.69c23.793 0 43.15 19.357 43.15 43.15v168.05c0 23.799-19.357 43.16-43.15 43.16h-128.97c-4.142 0-7.5 3.358-7.5 7.5s3.358 7.5 7.5 7.5h128.97c32.064 0 58.15-26.09 58.15-58.16v-168.05c0-32.064-26.086-58.15-58.15-58.15z"/><path d="m120.103 220.02h-63.848c-4.142 0-7.5 3.358-7.5 7.5s3.358 7.5 7.5 7.5h63.848c4.142 0 7.5-3.358 7.5-7.5s-3.358-7.5-7.5-7.5z"/><path d="m120.103 247.008h-63.848c-4.142 0-7.5 3.358-7.5 7.5s3.358 7.5 7.5 7.5h63.848c4.142 0 7.5-3.358 7.5-7.5s-3.358-7.5-7.5-7.5z"/><path d="m120.103 273.997h-63.848c-4.142 0-7.5 3.358-7.5 7.5s3.358 7.5 7.5 7.5h63.848c4.142 0 7.5-3.358 7.5-7.5s-3.358-7.5-7.5-7.5z"/><path d="m217.205 354.113h-63.848c-4.142 0-7.5 3.358-7.5 7.5s3.358 7.5 7.5 7.5h63.848c4.142 0 7.5-3.358 7.5-7.5s-3.358-7.5-7.5-7.5z"/><path d="m217.205 381.101h-63.848c-4.142 0-7.5 3.358-7.5 7.5s3.358 7.5 7.5 7.5h63.848c4.142 0 7.5-3.358 7.5-7.5s-3.358-7.5-7.5-7.5z"/><path d="m217.205 408.09h-63.848c-4.142 0-7.5 3.358-7.5 7.5s3.358 7.5 7.5 7.5h63.848c4.142 0 7.5-3.358 7.5-7.5s-3.358-7.5-7.5-7.5z"/><path d="m302.575 94.984h-118.385c-4.142 0-7.5 3.358-7.5 7.5s3.358 7.5 7.5 7.5h118.385c4.142 0 7.5-3.358 7.5-7.5s-3.358-7.5-7.5-7.5z"/><path d="m358.442 109.984c4.142 0 7.5-3.358 7.5-7.5s-3.358-7.5-7.5-7.5h-23.943c-4.142 0-7.5 3.358-7.5 7.5s3.358 7.5 7.5 7.5z"/><path d="m184.19 181.412h118.385c4.142 0 7.5-3.358 7.5-7.5s-3.358-7.5-7.5-7.5h-118.385c-4.142 0-7.5 3.358-7.5 7.5s3.358 7.5 7.5 7.5z"/><path d="m358.442 166.412h-23.943c-4.142 0-7.5 3.358-7.5 7.5s3.358 7.5 7.5 7.5h23.943c4.142 0 7.5-3.358 7.5-7.5s-3.358-7.5-7.5-7.5z"/><path d="m184.19 145.698h73.159c4.142 0 7.5-3.358 7.5-7.5s-3.358-7.5-7.5-7.5h-73.159c-4.142 0-7.5 3.358-7.5 7.5s3.358 7.5 7.5 7.5z"/><path d="m281.773 138.198c0 4.142 3.358 7.5 7.5 7.5h69.168c4.142 0 7.5-3.358 7.5-7.5s-3.358-7.5-7.5-7.5h-69.168c-4.142 0-7.5 3.358-7.5 7.5z"/><path d="m358.442 245.292h-98.432c-4.142 0-7.5 3.358-7.5 7.5s3.358 7.5 7.5 7.5h98.432c4.142 0 7.5-3.358 7.5-7.5s-3.358-7.5-7.5-7.5z"/><path d="m358.442 276.727h-49.216c-4.142 0-7.5 3.358-7.5 7.5s3.358 7.5 7.5 7.5h49.216c4.142 0 7.5-3.358 7.5-7.5s-3.358-7.5-7.5-7.5z"/><path d="m466.186 378.309h-98.432c-4.142 0-7.5 3.358-7.5 7.5s3.358 7.5 7.5 7.5h98.432c4.142 0 7.5-3.358 7.5-7.5s-3.358-7.5-7.5-7.5z"/><path d="m466.186 409.743h-49.216c-4.142 0-7.5 3.358-7.5 7.5s3.358 7.5 7.5 7.5h49.216c4.142 0 7.5-3.358 7.5-7.5s-3.358-7.5-7.5-7.5z"/><path d="m146.181 139.498c0-31.117-25.315-56.432-56.432-56.432s-56.433 25.315-56.433 56.432 25.315 56.433 56.433 56.433c31.117-.001 56.432-25.316 56.432-56.433zm-97.865 0c0-20.327 14.719-37.27 34.056-40.761l-21.476 35.435c-1.403 2.316-1.45 5.208-.121 7.568s3.827 3.819 6.535 3.819h29.131l-18.297 33.706c-17.213-5.032-29.828-20.95-29.828-39.767zm46.141 41.157 21.181-39.018c1.262-2.324 1.206-5.141-.146-7.413s-3.801-3.665-6.445-3.665h-28.421l18.97-31.301c18.106 4.432 31.585 20.787 31.585 40.24 0 21.253-16.088 38.811-36.724 41.157z"/></g></g></svg>