<svg id="Layer_1" enable-background="new 0 0 513 513" height="512" viewBox="0 0 513 513" width="512" xmlns="http://www.w3.org/2000/svg"><path d="m127 327.555c0 13.807-11.193 25-25 25-33.162-1.317-33.153-48.688 0-50 13.807 0 25 11.193 25 25zm246 94c-20.269 0-39.09-9.106-51.64-24.984-58.631-74.185-88.36-130.1-88.36-166.191 0-77.1 62.804-139.825 140-139.825s140 62.725 140 139.825c0 36.091-29.729 92.005-88.36 166.19-12.55 15.879-31.371 24.985-51.64 24.985zm20.257-49.787c49.932-63.178 79.743-116.033 79.743-141.388 0-55.044-44.859-99.825-100-99.825s-100 44.781-100 99.825c0 25.354 29.811 78.21 79.743 141.388 9.861 12.968 30.655 12.966 40.514 0zm-212.257 90.787c-13.807 0-25 11.193-25 25 1.317 33.162 48.688 33.153 50 0 0-13.807-11.193-25-25-25zm-156-160c-13.807 0-25 11.193-25 25 1.317 33.162 48.688 33.153 50 0 0-13.807-11.193-25-25-25zm154 50c13.807 0 25-11.193 25-25-1.317-33.162-48.688-33.153-50 0 0 13.807 11.193 25 25 25zm160 110c-13.807 0-25 11.193-25 25 1.317 33.162 48.688 33.153 50 0 0-13.807-11.193-25-25-25zm-158-80c-13.807 0-25 11.193-25 25 1.317 33.162 48.688 33.153 50 0 0-13.807-11.193-25-25-25zm236 80c-13.807 0-25 11.193-25 25 1.317 33.162 48.688 33.153 50 0 0-13.807-11.193-25-25-25zm-157 0c-13.807 0-25 11.193-25 25 1.317 33.162 48.688 33.153 50 0 0-13.807-11.193-25-25-25zm-235-194c-11.046 0-20-8.954-20-20v-179.63c0-37.687 30.66-68.348 68.348-68.348h77.496c15.212-.01 28.746 8.529 35.305 22.283 6.607 13.858 4.688 29.896-5.013 41.854-.335.413-13.062 13.799-13.062 13.799s13.876 14.372 14.267 14.859c9.601 11.978 11.437 28.024 4.791 41.877-6.586 13.729-20.093 22.264-35.251 22.273h-44.819c-26.536-1.056-26.516-38.953 0-40h43.106l-24.194-24.985c-7.466-7.711-7.515-19.94-.11-27.71l23.107-24.25h-75.623c-15.631 0-28.348 12.717-28.348 28.348v179.63c0 11.046-8.954 20-20 20zm348-14c13.807 0 25-11.193 25-25-1.317-33.162-48.688-33.153-50 0 0 13.807 11.193 25 25 25z"/></svg>