<svg height="496pt" viewBox="0 -88 496 496" width="496pt" xmlns="http://www.w3.org/2000/svg"><path d="m480 0h-464c-8.824219 0-16 7.175781-16 16v288c0 8.824219 7.175781 16 16 16h464c8.824219 0 16-7.175781 16-16v-288c0-8.824219-7.175781-16-16-16zm-.023438 304h-463.976562v-288h464zm0 0"/><path d="m464 32h-432v256h432zm-16 240h-400v-224h400zm0 0"/><path d="m416 64h16v16h-16zm0 0"/><path d="m64 64h16v16h-16zm0 0"/><path d="m416 240h16v16h-16zm0 0"/><path d="m64 240h16v16h-16zm0 0"/><path d="m72 176c0 10.59375 4.144531 20.632812 11.742188 28.335938 7.632812 7.519531 17.671874 11.664062 28.257812 11.664062 22.054688 0 40-17.945312 40-40h-16c0 13.230469-10.769531 24-24 24-6.359375 0-12.40625-2.503906-16.945312-6.976562-4.550782-4.617188-7.054688-10.664063-7.054688-17.023438v-32c0-13.230469 10.769531-24 24-24 6.359375 0 12.40625 2.503906 16.945312 6.976562 4.550782 4.617188 7.054688 10.664063 7.054688 17.023438h16c0-10.59375-4.144531-20.632812-11.742188-28.335938-7.632812-7.519531-17.671874-11.664062-28.257812-11.664062-22.054688 0-40 17.945312-40 40zm0 0"/><path d="m168 152h48v16h-48zm0 0"/><path d="m264 128v16c0 4.40625-3.585938 8-8 8h-24v16h24c4.414062 0 8 3.59375 8 8v16c0 4.40625-3.585938 8-8 8h-40v16h40c13.230469 0 24-10.769531 24-24v-16c0-6.167969-2.40625-11.742188-6.238281-16 3.839843-4.257812 6.238281-9.832031 6.238281-16v-16c0-13.230469-10.769531-24-24-24h-40v16h40c4.414062 0 8 3.59375 8 8zm0 0"/><path d="m360 200h-44.6875l31.0625-31.0625c8.65625-8.65625 13.625-20.664062 13.625-32.9375 0-8.535156-3.328125-16.566406-9.382812-22.617188-6.050782-6.046874-14.089844-9.382812-22.617188-9.382812-17.648438 0-32 14.351562-32 32v8h16v-8c0-8.824219 7.175781-16 16-16 4.257812 0 8.273438 1.664062 11.304688 4.695312s4.695312 7.039063 4.695312 11.304688c0 8.0625-3.257812 15.945312-8.9375 21.625l-39.0625 39.0625v19.3125h64zm0 0"/><path d="m424 200h-16v-96h-32v16h16v80h-16v16h48zm0 0"/></svg>