<?xml version="1.0" encoding="iso-8859-1"?>
<!-- Generator: Adobe Illustrator 19.0.0, SVG Export Plug-In . SVG Version: 6.00 Build 0)  -->
<svg version="1.1" id="Capa_1" xmlns="http://www.w3.org/2000/svg" xmlns:xlink="http://www.w3.org/1999/xlink" x="0px" y="0px"
	 viewBox="0 0 512 512" style="enable-background:new 0 0 512 512;" xml:space="preserve">
<g>
	<g>
		<path d="M74.667,426.667c-5.888,0-10.667,4.779-10.667,10.667v32C64,475.221,59.2,480,53.333,480
			c-5.867,0-10.667-4.779-10.667-10.667v-32c0-5.888-4.779-10.667-10.667-10.667s-10.667,4.779-10.667,10.667v32
			c0,17.643,14.357,32,32,32c17.643,0,32-14.357,32-32v-32C85.333,431.445,80.555,426.667,74.667,426.667z"/>
	</g>
</g>
<g>
	<g>
		<path d="M458.667,426.667c-5.888,0-10.667,4.779-10.667,10.667v32c0,5.888-4.8,10.667-10.667,10.667
			c-5.867,0-10.667-4.779-10.667-10.667v-32c0-5.888-4.779-10.667-10.667-10.667c-5.888,0-10.667,4.779-10.667,10.667v32
			c0,17.643,14.357,32,32,32c17.643,0,32-14.357,32-32v-32C469.333,431.445,464.555,426.667,458.667,426.667z"/>
	</g>
</g>
<g>
	<g>
		<path d="M245.333,437.333c-52.672,0-160.341-6.613-216.021-17.365c-4.629-0.896-7.979-5.099-7.979-10.197
			c0-3.093,1.301-5.867,3.627-7.851c2.347-1.963,5.269-2.752,8.277-2.219C88.853,409.323,189.653,416,245.333,416
			c5.888,0,10.667-4.779,10.667-10.667c0-5.888-4.779-10.667-10.667-10.667c-54.805,0-153.92-6.571-208.491-15.979
			c-9.152-1.579-18.539,0.96-25.643,6.912C4.075,391.616,0,400.405,0,409.963c0,15.125,10.624,28.139,25.28,30.955
			c56.917,11.008,166.528,17.749,220.053,17.749c5.888,0,10.667-4.779,10.667-10.667C256,442.112,251.221,437.333,245.333,437.333z"
			/>
	</g>
</g>
<g>
	<g>
		<path d="M479.445,385.6c-7.104-5.995-16.491-8.512-25.643-6.912c-54.549,9.408-153.664,15.979-208.469,15.979
			c-5.888,0-10.667,4.779-10.667,10.667c0,5.888,4.779,10.667,10.667,10.667c55.68,0,156.48-6.677,212.096-16.299
			c2.987-0.512,5.952,0.256,8.277,2.219c2.325,1.963,3.627,4.757,3.627,8.043c0,4.907-3.349,9.131-7.979,10.027
			c-55.68,10.731-163.349,17.344-216.021,17.344c-5.888,0-10.667,4.779-10.667,10.667c0,5.888,4.779,10.667,10.667,10.667
			c53.525,0,163.136-6.741,220.053-17.749c14.656-2.816,25.28-15.851,25.28-31.147C490.667,400.427,486.592,391.616,479.445,385.6z"
			/>
	</g>
</g>
<g>
	<g>
		<path d="M245.333,202.667C215.915,202.667,192,226.603,192,256s23.915,53.333,53.333,53.333c29.419,0,53.333-23.936,53.333-53.333
			S274.752,202.667,245.333,202.667z M245.333,288c-17.643,0-32-14.357-32-32s14.357-32,32-32c17.643,0,32,14.357,32,32
			S262.976,288,245.333,288z"/>
	</g>
</g>
<g>
	<g>
		<path d="M85.333,288c-23.531,0-42.667,19.136-42.667,42.667s19.136,42.667,42.667,42.667c23.531,0,42.667-19.136,42.667-42.667
			S108.864,288,85.333,288z M85.333,352C73.557,352,64,342.421,64,330.667c0-11.755,9.557-21.333,21.333-21.333
			s21.333,9.579,21.333,21.333S97.109,352,85.333,352z"/>
	</g>
</g>
<g>
	<g>
		<path d="M405.333,288c-23.531,0-42.667,19.136-42.667,42.667s19.136,42.667,42.667,42.667c23.531,0,42.667-19.136,42.667-42.667
			S428.864,288,405.333,288z M405.333,352C393.557,352,384,342.421,384,330.667c0-11.755,9.557-21.333,21.333-21.333
			s21.333,9.579,21.333,21.333S417.109,352,405.333,352z"/>
	</g>
</g>
<g>
	<g>
		<path d="M245.333,10.667c-1.813,0-180.928,1.344-201.771,49.067C29.312,92.373,0,245.483,0,298.667
			c0,54.549,8.533,84.629,26.88,94.677c1.621,0.896,3.371,1.323,5.12,1.323c3.755,0,7.424-2.005,9.344-5.525
			c2.837-5.163,0.939-11.648-4.224-14.485c-3.712-2.048-15.787-13.525-15.787-75.989c0-48.768,28.843-200.747,41.771-230.4
			C72.021,47.851,168.384,32,245.333,32C251.221,32,256,27.221,256,21.333S251.221,10.667,245.333,10.667z"/>
	</g>
</g>
<g>
	<g>
		<path d="M447.104,59.733c-20.843-47.723-199.957-49.067-201.771-49.067c-5.888,0-10.667,4.779-10.667,10.667
			S239.445,32,245.333,32c76.949,0,173.312,15.829,182.229,36.267c12.928,29.653,41.771,181.632,41.771,230.4
			c0,62.464-12.075,73.941-15.787,75.968c-5.163,2.837-7.061,9.323-4.224,14.485c1.92,3.541,5.589,5.547,9.344,5.547
			c1.749,0,3.499-0.427,5.12-1.323c18.347-10.048,26.88-40.128,26.88-94.677C490.667,245.483,461.355,92.373,447.104,59.733z"/>
	</g>
</g>
<g>
	<g>
		<path d="M254.443,378.432C180.587,257.749,100.373,217.771,24.704,192.555c-5.568-1.835-11.605,1.152-13.504,6.741
			c-1.856,5.589,1.173,11.627,6.763,13.483c71.829,23.936,147.989,61.931,218.261,176.789c2.027,3.285,5.525,5.099,9.109,5.099
			c1.92,0,3.84-0.491,5.568-1.557C255.915,390.016,257.515,383.467,254.443,378.432z"/>
	</g>
</g>
<g>
	<g>
		<path d="M479.467,199.275c-1.877-5.589-7.915-8.576-13.504-6.741c-75.669,25.216-155.883,65.195-229.739,185.877
			c-3.072,5.035-1.472,11.605,3.541,14.677c1.728,1.088,3.648,1.579,5.568,1.579c3.584,0,7.083-1.813,9.131-5.12
			c70.251-114.859,146.432-152.832,218.261-176.789C478.293,210.901,481.323,204.864,479.467,199.275z"/>
	</g>
</g>
<g>
	<g>
		<circle cx="437.333" cy="256" r="10.667"/>
	</g>
</g>
<g>
	<g>
		<circle cx="53.333" cy="256" r="10.667"/>
	</g>
</g>
<g>
	<g>
		<path d="M426.453,168.576l-17.899-89.515c-2.987-14.912-16.192-25.728-31.381-25.728H113.472
			c-15.189,0-28.395,10.816-31.36,25.728l-17.899,89.515c-0.64,3.136,0.171,6.379,2.197,8.853c2.027,2.475,5.077,3.904,8.256,3.904
			H416c3.179,0,6.208-1.429,8.235-3.904C426.261,174.955,427.072,171.712,426.453,168.576z M87.659,160l15.36-76.757
			c1.003-4.971,5.397-8.576,10.453-8.576h263.723c5.056,0,9.451,3.605,10.432,8.576L402.987,160H87.659z"/>
	</g>
</g>
<g>
	<g>
		<path d="M245.333,53.333c-5.888,0-10.667,4.779-10.667,10.667v106.667c0,5.888,4.779,10.667,10.667,10.667
			S256,176.555,256,170.667V64C256,58.112,251.221,53.333,245.333,53.333z"/>
	</g>
</g>
<g>
	<g>
		<path d="M499.712,143.381c-16.085-12.032-41.28-5.099-44.096-4.267c-5.653,1.685-8.853,7.637-7.189,13.269
			c1.664,5.632,7.509,8.875,13.269,7.189c5.376-1.621,19.221-3.605,25.28,0.896c0.917,0.683,3.691,2.752,3.691,10.197
			c0,1.429-0.064,2.581-0.171,3.456c-3.627-1.92-9.216-6.336-13.419-10.773c-4.011-4.267-10.773-4.48-15.061-0.427
			c-4.288,4.032-4.459,10.773-0.448,15.061c5.675,6.037,18.901,18.453,31.573,18.453c2.219,0,4.373-0.384,6.507-1.237
			C507.84,191.957,512,183.701,512,170.667C512,155.669,505.344,147.541,499.712,143.381z"/>
	</g>
</g>
<g>
</g>
<g>
</g>
<g>
</g>
<g>
</g>
<g>
</g>
<g>
</g>
<g>
</g>
<g>
</g>
<g>
</g>
<g>
</g>
<g>
</g>
<g>
</g>
<g>
</g>
<g>
</g>
<g>
</g>
</svg>
